<mxfile host="app.diagrams.net" modified="2022-09-10T16:14:26.444Z" agent="5.0 (Windows NT 10.0; Win64; x64) AppleWebKit/537.36 (KHTML, like Gecko) Chrome/105.0.0.0 Safari/537.36" etag="jC9JoD0csPh-q72L0IQh" version="14.7.3" type="github">
  <diagram id="C5RBs43oDa-KdzZeNtuy" name="Page-1">
    <mxGraphModel dx="2031" dy="1089" grid="1" gridSize="10" guides="1" tooltips="1" connect="1" arrows="1" fold="1" page="1" pageScale="1" pageWidth="827" pageHeight="1169" math="0" shadow="0">
      <root>
        <mxCell id="WIyWlLk6GJQsqaUBKTNV-0" />
        <mxCell id="WIyWlLk6GJQsqaUBKTNV-1" parent="WIyWlLk6GJQsqaUBKTNV-0" />
        <mxCell id="w46rc9Ggta0nKSejpY7C-8" style="edgeStyle=orthogonalEdgeStyle;rounded=0;orthogonalLoop=1;jettySize=auto;html=1;exitX=1;exitY=0.5;exitDx=0;exitDy=0;" parent="WIyWlLk6GJQsqaUBKTNV-1" source="w46rc9Ggta0nKSejpY7C-0" target="w46rc9Ggta0nKSejpY7C-7" edge="1">
          <mxGeometry relative="1" as="geometry" />
        </mxCell>
        <mxCell id="w46rc9Ggta0nKSejpY7C-0" value="Game Play Scene&amp;nbsp;&lt;br&gt;opened" style="ellipse;whiteSpace=wrap;html=1;aspect=fixed;fillColor=#d5e8d4;strokeColor=#82b366;" parent="WIyWlLk6GJQsqaUBKTNV-1" vertex="1">
          <mxGeometry x="40" y="60" width="80" height="80" as="geometry" />
        </mxCell>
        <mxCell id="NA5cMDwMh_C78hmzZWPd-11" value="Yes" style="edgeStyle=orthogonalEdgeStyle;rounded=0;orthogonalLoop=1;jettySize=auto;html=1;" edge="1" parent="WIyWlLk6GJQsqaUBKTNV-1" source="w46rc9Ggta0nKSejpY7C-5" target="NA5cMDwMh_C78hmzZWPd-10">
          <mxGeometry relative="1" as="geometry" />
        </mxCell>
        <mxCell id="NA5cMDwMh_C78hmzZWPd-22" value="No" style="edgeStyle=orthogonalEdgeStyle;rounded=0;orthogonalLoop=1;jettySize=auto;html=1;exitX=1;exitY=0.5;exitDx=0;exitDy=0;entryX=0;entryY=0.5;entryDx=0;entryDy=0;" edge="1" parent="WIyWlLk6GJQsqaUBKTNV-1" source="w46rc9Ggta0nKSejpY7C-5" target="Tm4pH8bPhfzeuyTJ1Fgy-13">
          <mxGeometry relative="1" as="geometry" />
        </mxCell>
        <mxCell id="w46rc9Ggta0nKSejpY7C-5" value="&lt;span style=&quot;font-size: 10px&quot;&gt;Hits ball?&lt;/span&gt;" style="rhombus;whiteSpace=wrap;html=1;shadow=0;fontFamily=Helvetica;fontSize=12;align=center;strokeWidth=1;spacing=6;spacingTop=-4;fillColor=#fff2cc;strokeColor=#d6b656;" parent="WIyWlLk6GJQsqaUBKTNV-1" vertex="1">
          <mxGeometry x="725" y="480" width="90" height="80" as="geometry" />
        </mxCell>
        <mxCell id="Tm4pH8bPhfzeuyTJ1Fgy-6" value="" style="edgeStyle=orthogonalEdgeStyle;rounded=0;orthogonalLoop=1;jettySize=auto;html=1;" parent="WIyWlLk6GJQsqaUBKTNV-1" source="w46rc9Ggta0nKSejpY7C-7" target="Tm4pH8bPhfzeuyTJ1Fgy-4" edge="1">
          <mxGeometry relative="1" as="geometry" />
        </mxCell>
        <mxCell id="w46rc9Ggta0nKSejpY7C-7" value="&lt;font style=&quot;font-size: 12px&quot;&gt;Gameplay Scene loads&lt;/font&gt;" style="rounded=1;whiteSpace=wrap;html=1;fillColor=#dae8fc;strokeColor=#6c8ebf;" parent="WIyWlLk6GJQsqaUBKTNV-1" vertex="1">
          <mxGeometry x="160" y="80" width="120" height="40" as="geometry" />
        </mxCell>
        <mxCell id="Tm4pH8bPhfzeuyTJ1Fgy-17" value="" style="edgeStyle=orthogonalEdgeStyle;rounded=0;orthogonalLoop=1;jettySize=auto;html=1;" parent="WIyWlLk6GJQsqaUBKTNV-1" source="w46rc9Ggta0nKSejpY7C-31" target="Tm4pH8bPhfzeuyTJ1Fgy-16" edge="1">
          <mxGeometry relative="1" as="geometry" />
        </mxCell>
        <mxCell id="w46rc9Ggta0nKSejpY7C-31" value="Player turn begins" style="rounded=1;whiteSpace=wrap;html=1;fillColor=#dae8fc;strokeColor=#6c8ebf;" parent="WIyWlLk6GJQsqaUBKTNV-1" vertex="1">
          <mxGeometry x="160" y="240" width="120" height="40" as="geometry" />
        </mxCell>
        <mxCell id="Tm4pH8bPhfzeuyTJ1Fgy-42" style="edgeStyle=orthogonalEdgeStyle;rounded=0;orthogonalLoop=1;jettySize=auto;html=1;exitX=0;exitY=0.5;exitDx=0;exitDy=0;entryX=1;entryY=0.5;entryDx=0;entryDy=0;" parent="WIyWlLk6GJQsqaUBKTNV-1" source="Tm4pH8bPhfzeuyTJ1Fgy-0" target="w46rc9Ggta0nKSejpY7C-31" edge="1">
          <mxGeometry relative="1" as="geometry" />
        </mxCell>
        <mxCell id="Tm4pH8bPhfzeuyTJ1Fgy-0" value="Becomes opposing player&#39;s turn" style="rounded=1;whiteSpace=wrap;html=1;fillColor=#dae8fc;strokeColor=#6c8ebf;" parent="WIyWlLk6GJQsqaUBKTNV-1" vertex="1">
          <mxGeometry x="320" y="240" width="120" height="40" as="geometry" />
        </mxCell>
        <mxCell id="Tm4pH8bPhfzeuyTJ1Fgy-7" value="" style="edgeStyle=orthogonalEdgeStyle;rounded=0;orthogonalLoop=1;jettySize=auto;html=1;" parent="WIyWlLk6GJQsqaUBKTNV-1" source="Tm4pH8bPhfzeuyTJ1Fgy-4" target="w46rc9Ggta0nKSejpY7C-31" edge="1">
          <mxGeometry relative="1" as="geometry" />
        </mxCell>
        <mxCell id="Tm4pH8bPhfzeuyTJ1Fgy-4" value="&lt;font style=&quot;font-size: 12px&quot;&gt;&amp;nbsp;First player is selected&lt;/font&gt;" style="rounded=1;whiteSpace=wrap;html=1;fillColor=#dae8fc;strokeColor=#6c8ebf;" parent="WIyWlLk6GJQsqaUBKTNV-1" vertex="1">
          <mxGeometry x="160" y="160" width="120" height="40" as="geometry" />
        </mxCell>
        <mxCell id="Tm4pH8bPhfzeuyTJ1Fgy-10" value="Yes" style="edgeStyle=orthogonalEdgeStyle;rounded=0;orthogonalLoop=1;jettySize=auto;html=1;exitX=0.5;exitY=1;exitDx=0;exitDy=0;" parent="WIyWlLk6GJQsqaUBKTNV-1" source="Tm4pH8bPhfzeuyTJ1Fgy-8" target="Tm4pH8bPhfzeuyTJ1Fgy-9" edge="1">
          <mxGeometry relative="1" as="geometry" />
        </mxCell>
        <mxCell id="Tm4pH8bPhfzeuyTJ1Fgy-27" value="No" style="edgeStyle=orthogonalEdgeStyle;rounded=0;orthogonalLoop=1;jettySize=auto;html=1;exitX=1;exitY=0.5;exitDx=0;exitDy=0;entryX=0;entryY=0.5;entryDx=0;entryDy=0;" parent="WIyWlLk6GJQsqaUBKTNV-1" source="Tm4pH8bPhfzeuyTJ1Fgy-8" target="Tm4pH8bPhfzeuyTJ1Fgy-25" edge="1">
          <mxGeometry relative="1" as="geometry" />
        </mxCell>
        <mxCell id="Tm4pH8bPhfzeuyTJ1Fgy-8" value="&lt;span style=&quot;font-size: 10px&quot;&gt;Presses Pause key?&lt;/span&gt;" style="rhombus;whiteSpace=wrap;html=1;shadow=0;fontFamily=Helvetica;fontSize=12;align=center;strokeWidth=1;spacing=6;spacingTop=-4;fillColor=#fff2cc;strokeColor=#d6b656;" parent="WIyWlLk6GJQsqaUBKTNV-1" vertex="1">
          <mxGeometry x="175" y="480" width="90" height="80" as="geometry" />
        </mxCell>
        <mxCell id="Tm4pH8bPhfzeuyTJ1Fgy-9" value="Pause menu opens" style="ellipse;whiteSpace=wrap;html=1;aspect=fixed;fillColor=#f8cecc;strokeColor=#b85450;" parent="WIyWlLk6GJQsqaUBKTNV-1" vertex="1">
          <mxGeometry x="180" y="600" width="80" height="80" as="geometry" />
        </mxCell>
        <mxCell id="Tm4pH8bPhfzeuyTJ1Fgy-21" value="" style="edgeStyle=orthogonalEdgeStyle;rounded=0;orthogonalLoop=1;jettySize=auto;html=1;" parent="WIyWlLk6GJQsqaUBKTNV-1" source="Tm4pH8bPhfzeuyTJ1Fgy-13" target="Tm4pH8bPhfzeuyTJ1Fgy-20" edge="1">
          <mxGeometry relative="1" as="geometry" />
        </mxCell>
        <mxCell id="Tm4pH8bPhfzeuyTJ1Fgy-13" value="Opposing player points update" style="rounded=1;whiteSpace=wrap;html=1;fillColor=#dae8fc;strokeColor=#6c8ebf;" parent="WIyWlLk6GJQsqaUBKTNV-1" vertex="1">
          <mxGeometry x="995" y="500" width="120" height="40" as="geometry" />
        </mxCell>
        <mxCell id="Tm4pH8bPhfzeuyTJ1Fgy-18" style="edgeStyle=orthogonalEdgeStyle;rounded=0;orthogonalLoop=1;jettySize=auto;html=1;exitX=0.5;exitY=1;exitDx=0;exitDy=0;entryX=0.5;entryY=0;entryDx=0;entryDy=0;" parent="WIyWlLk6GJQsqaUBKTNV-1" source="Tm4pH8bPhfzeuyTJ1Fgy-16" target="Tm4pH8bPhfzeuyTJ1Fgy-8" edge="1">
          <mxGeometry relative="1" as="geometry">
            <mxPoint x="220" y="400" as="targetPoint" />
          </mxGeometry>
        </mxCell>
        <mxCell id="Tm4pH8bPhfzeuyTJ1Fgy-16" value="Ball moves towards current player" style="rounded=1;whiteSpace=wrap;html=1;fillColor=#dae8fc;strokeColor=#6c8ebf;" parent="WIyWlLk6GJQsqaUBKTNV-1" vertex="1">
          <mxGeometry x="160" y="320" width="120" height="40" as="geometry" />
        </mxCell>
        <mxCell id="Tm4pH8bPhfzeuyTJ1Fgy-24" value="Yes" style="edgeStyle=orthogonalEdgeStyle;rounded=0;orthogonalLoop=1;jettySize=auto;html=1;" parent="WIyWlLk6GJQsqaUBKTNV-1" source="Tm4pH8bPhfzeuyTJ1Fgy-20" target="Tm4pH8bPhfzeuyTJ1Fgy-23" edge="1">
          <mxGeometry relative="1" as="geometry" />
        </mxCell>
        <mxCell id="Tm4pH8bPhfzeuyTJ1Fgy-40" value="No" style="edgeStyle=orthogonalEdgeStyle;rounded=0;orthogonalLoop=1;jettySize=auto;html=1;" parent="WIyWlLk6GJQsqaUBKTNV-1" source="Tm4pH8bPhfzeuyTJ1Fgy-20" target="Tm4pH8bPhfzeuyTJ1Fgy-38" edge="1">
          <mxGeometry relative="1" as="geometry" />
        </mxCell>
        <mxCell id="Tm4pH8bPhfzeuyTJ1Fgy-20" value="&lt;span style=&quot;font-size: 10px&quot;&gt;Is final turn?&lt;/span&gt;" style="rhombus;whiteSpace=wrap;html=1;shadow=0;fontFamily=Helvetica;fontSize=12;align=center;strokeWidth=1;spacing=6;spacingTop=-4;fillColor=#fff2cc;strokeColor=#d6b656;" parent="WIyWlLk6GJQsqaUBKTNV-1" vertex="1">
          <mxGeometry x="1010" y="580" width="90" height="80" as="geometry" />
        </mxCell>
        <mxCell id="Tm4pH8bPhfzeuyTJ1Fgy-23" value="Game End Scene opens" style="ellipse;whiteSpace=wrap;html=1;aspect=fixed;fillColor=#f8cecc;strokeColor=#b85450;" parent="WIyWlLk6GJQsqaUBKTNV-1" vertex="1">
          <mxGeometry x="1015" y="700" width="80" height="80" as="geometry" />
        </mxCell>
        <mxCell id="Tm4pH8bPhfzeuyTJ1Fgy-26" value="Yes" style="edgeStyle=orthogonalEdgeStyle;rounded=0;orthogonalLoop=1;jettySize=auto;html=1;exitX=0.5;exitY=0;exitDx=0;exitDy=0;entryX=0.5;entryY=1;entryDx=0;entryDy=0;" parent="WIyWlLk6GJQsqaUBKTNV-1" source="Tm4pH8bPhfzeuyTJ1Fgy-25" target="NA5cMDwMh_C78hmzZWPd-4" edge="1">
          <mxGeometry relative="1" as="geometry">
            <mxPoint x="355" y="440" as="targetPoint" />
          </mxGeometry>
        </mxCell>
        <mxCell id="NA5cMDwMh_C78hmzZWPd-1" value="No" style="edgeStyle=orthogonalEdgeStyle;rounded=0;orthogonalLoop=1;jettySize=auto;html=1;exitX=1;exitY=0.5;exitDx=0;exitDy=0;" edge="1" parent="WIyWlLk6GJQsqaUBKTNV-1" source="Tm4pH8bPhfzeuyTJ1Fgy-25" target="NA5cMDwMh_C78hmzZWPd-0">
          <mxGeometry relative="1" as="geometry" />
        </mxCell>
        <mxCell id="Tm4pH8bPhfzeuyTJ1Fgy-25" value="&lt;span style=&quot;font-size: 10px&quot;&gt;Presses move key?&lt;/span&gt;" style="rhombus;whiteSpace=wrap;html=1;shadow=0;fontFamily=Helvetica;fontSize=12;align=center;strokeWidth=1;spacing=6;spacingTop=-4;fillColor=#fff2cc;strokeColor=#d6b656;" parent="WIyWlLk6GJQsqaUBKTNV-1" vertex="1">
          <mxGeometry x="310" y="480" width="90" height="80" as="geometry" />
        </mxCell>
        <mxCell id="Tm4pH8bPhfzeuyTJ1Fgy-33" value="Yes" style="edgeStyle=orthogonalEdgeStyle;rounded=0;orthogonalLoop=1;jettySize=auto;html=1;" parent="WIyWlLk6GJQsqaUBKTNV-1" source="Tm4pH8bPhfzeuyTJ1Fgy-31" target="w46rc9Ggta0nKSejpY7C-5" edge="1">
          <mxGeometry relative="1" as="geometry" />
        </mxCell>
        <mxCell id="Tm4pH8bPhfzeuyTJ1Fgy-34" value="No" style="edgeStyle=orthogonalEdgeStyle;rounded=0;orthogonalLoop=1;jettySize=auto;html=1;exitX=0.5;exitY=0;exitDx=0;exitDy=0;entryX=1;entryY=0.25;entryDx=0;entryDy=0;" parent="WIyWlLk6GJQsqaUBKTNV-1" source="Tm4pH8bPhfzeuyTJ1Fgy-31" target="Tm4pH8bPhfzeuyTJ1Fgy-16" edge="1">
          <mxGeometry relative="1" as="geometry" />
        </mxCell>
        <mxCell id="Tm4pH8bPhfzeuyTJ1Fgy-31" value="&lt;span style=&quot;font-size: 10px&quot;&gt;Ball reached player zone?&lt;/span&gt;" style="rhombus;whiteSpace=wrap;html=1;shadow=0;fontFamily=Helvetica;fontSize=12;align=center;strokeWidth=1;spacing=6;spacingTop=-4;fillColor=#fff2cc;strokeColor=#d6b656;" parent="WIyWlLk6GJQsqaUBKTNV-1" vertex="1">
          <mxGeometry x="590" y="480" width="90" height="80" as="geometry" />
        </mxCell>
        <mxCell id="Tm4pH8bPhfzeuyTJ1Fgy-41" style="edgeStyle=orthogonalEdgeStyle;rounded=0;orthogonalLoop=1;jettySize=auto;html=1;entryX=1;entryY=0.25;entryDx=0;entryDy=0;exitX=0.5;exitY=0;exitDx=0;exitDy=0;" parent="WIyWlLk6GJQsqaUBKTNV-1" source="Tm4pH8bPhfzeuyTJ1Fgy-38" target="Tm4pH8bPhfzeuyTJ1Fgy-0" edge="1">
          <mxGeometry relative="1" as="geometry">
            <Array as="points">
              <mxPoint x="1205" y="250" />
            </Array>
            <mxPoint x="580" y="250" as="targetPoint" />
          </mxGeometry>
        </mxCell>
        <mxCell id="Tm4pH8bPhfzeuyTJ1Fgy-38" value="New ball is spawned" style="rounded=1;whiteSpace=wrap;html=1;fillColor=#dae8fc;strokeColor=#6c8ebf;" parent="WIyWlLk6GJQsqaUBKTNV-1" vertex="1">
          <mxGeometry x="1145" y="600" width="120" height="40" as="geometry" />
        </mxCell>
        <mxCell id="NA5cMDwMh_C78hmzZWPd-2" value="No" style="edgeStyle=orthogonalEdgeStyle;rounded=0;orthogonalLoop=1;jettySize=auto;html=1;exitX=1;exitY=0.5;exitDx=0;exitDy=0;entryX=0;entryY=0.5;entryDx=0;entryDy=0;" edge="1" parent="WIyWlLk6GJQsqaUBKTNV-1" source="NA5cMDwMh_C78hmzZWPd-0" target="Tm4pH8bPhfzeuyTJ1Fgy-31">
          <mxGeometry relative="1" as="geometry" />
        </mxCell>
        <mxCell id="NA5cMDwMh_C78hmzZWPd-6" value="" style="edgeStyle=orthogonalEdgeStyle;rounded=0;orthogonalLoop=1;jettySize=auto;html=1;" edge="1" parent="WIyWlLk6GJQsqaUBKTNV-1" source="NA5cMDwMh_C78hmzZWPd-0" target="NA5cMDwMh_C78hmzZWPd-5">
          <mxGeometry relative="1" as="geometry" />
        </mxCell>
        <mxCell id="NA5cMDwMh_C78hmzZWPd-0" value="&lt;span style=&quot;font-size: 10px&quot;&gt;Presses Rotate key?&lt;/span&gt;" style="rhombus;whiteSpace=wrap;html=1;shadow=0;fontFamily=Helvetica;fontSize=12;align=center;strokeWidth=1;spacing=6;spacingTop=-4;fillColor=#fff2cc;strokeColor=#d6b656;" vertex="1" parent="WIyWlLk6GJQsqaUBKTNV-1">
          <mxGeometry x="450" y="480" width="90" height="80" as="geometry" />
        </mxCell>
        <mxCell id="NA5cMDwMh_C78hmzZWPd-7" style="edgeStyle=orthogonalEdgeStyle;rounded=0;orthogonalLoop=1;jettySize=auto;html=1;exitX=0.5;exitY=0;exitDx=0;exitDy=0;entryX=1;entryY=0.75;entryDx=0;entryDy=0;" edge="1" parent="WIyWlLk6GJQsqaUBKTNV-1" source="NA5cMDwMh_C78hmzZWPd-4" target="Tm4pH8bPhfzeuyTJ1Fgy-16">
          <mxGeometry relative="1" as="geometry" />
        </mxCell>
        <mxCell id="NA5cMDwMh_C78hmzZWPd-4" value="Player paddle moves" style="rounded=1;whiteSpace=wrap;html=1;fillColor=#dae8fc;strokeColor=#6c8ebf;" vertex="1" parent="WIyWlLk6GJQsqaUBKTNV-1">
          <mxGeometry x="295" y="400" width="120" height="40" as="geometry" />
        </mxCell>
        <mxCell id="NA5cMDwMh_C78hmzZWPd-8" style="edgeStyle=orthogonalEdgeStyle;rounded=0;orthogonalLoop=1;jettySize=auto;html=1;exitX=0.5;exitY=0;exitDx=0;exitDy=0;" edge="1" parent="WIyWlLk6GJQsqaUBKTNV-1" source="NA5cMDwMh_C78hmzZWPd-5">
          <mxGeometry relative="1" as="geometry">
            <mxPoint x="280" y="350.0000000000001" as="targetPoint" />
            <Array as="points">
              <mxPoint x="495" y="350" />
            </Array>
          </mxGeometry>
        </mxCell>
        <mxCell id="NA5cMDwMh_C78hmzZWPd-5" value="Entire board rotates 90 degrees" style="rounded=1;whiteSpace=wrap;html=1;fillColor=#dae8fc;strokeColor=#6c8ebf;" vertex="1" parent="WIyWlLk6GJQsqaUBKTNV-1">
          <mxGeometry x="435" y="400" width="120" height="40" as="geometry" />
        </mxCell>
        <mxCell id="NA5cMDwMh_C78hmzZWPd-13" value="Yes" style="edgeStyle=orthogonalEdgeStyle;rounded=0;orthogonalLoop=1;jettySize=auto;html=1;" edge="1" parent="WIyWlLk6GJQsqaUBKTNV-1" source="NA5cMDwMh_C78hmzZWPd-10" target="NA5cMDwMh_C78hmzZWPd-12">
          <mxGeometry relative="1" as="geometry" />
        </mxCell>
        <mxCell id="NA5cMDwMh_C78hmzZWPd-14" value="No" style="edgeStyle=orthogonalEdgeStyle;rounded=0;orthogonalLoop=1;jettySize=auto;html=1;exitX=0.5;exitY=0;exitDx=0;exitDy=0;entryX=1;entryY=0.75;entryDx=0;entryDy=0;" edge="1" parent="WIyWlLk6GJQsqaUBKTNV-1" source="NA5cMDwMh_C78hmzZWPd-10" target="Tm4pH8bPhfzeuyTJ1Fgy-0">
          <mxGeometry relative="1" as="geometry" />
        </mxCell>
        <mxCell id="NA5cMDwMh_C78hmzZWPd-10" value="&lt;span style=&quot;font-size: 10px&quot;&gt;Tried power shot?&lt;/span&gt;" style="rhombus;whiteSpace=wrap;html=1;shadow=0;fontFamily=Helvetica;fontSize=12;align=center;strokeWidth=1;spacing=6;spacingTop=-4;fillColor=#fff2cc;strokeColor=#d6b656;" vertex="1" parent="WIyWlLk6GJQsqaUBKTNV-1">
          <mxGeometry x="725" y="360" width="90" height="80" as="geometry" />
        </mxCell>
        <mxCell id="NA5cMDwMh_C78hmzZWPd-18" value="" style="edgeStyle=orthogonalEdgeStyle;rounded=0;orthogonalLoop=1;jettySize=auto;html=1;" edge="1" parent="WIyWlLk6GJQsqaUBKTNV-1" source="NA5cMDwMh_C78hmzZWPd-12" target="NA5cMDwMh_C78hmzZWPd-15">
          <mxGeometry relative="1" as="geometry" />
        </mxCell>
        <mxCell id="NA5cMDwMh_C78hmzZWPd-19" value="" style="edgeStyle=orthogonalEdgeStyle;rounded=0;orthogonalLoop=1;jettySize=auto;html=1;" edge="1" parent="WIyWlLk6GJQsqaUBKTNV-1" source="NA5cMDwMh_C78hmzZWPd-12" target="NA5cMDwMh_C78hmzZWPd-16">
          <mxGeometry relative="1" as="geometry" />
        </mxCell>
        <mxCell id="NA5cMDwMh_C78hmzZWPd-12" value="&lt;span style=&quot;font-size: 10px&quot;&gt;Succeeded?&lt;/span&gt;" style="rhombus;whiteSpace=wrap;html=1;shadow=0;fontFamily=Helvetica;fontSize=12;align=center;strokeWidth=1;spacing=6;spacingTop=-4;fillColor=#fff2cc;strokeColor=#d6b656;" vertex="1" parent="WIyWlLk6GJQsqaUBKTNV-1">
          <mxGeometry x="860" y="360" width="90" height="80" as="geometry" />
        </mxCell>
        <mxCell id="NA5cMDwMh_C78hmzZWPd-20" style="edgeStyle=orthogonalEdgeStyle;rounded=0;orthogonalLoop=1;jettySize=auto;html=1;exitX=0.5;exitY=0;exitDx=0;exitDy=0;entryX=1;entryY=0.25;entryDx=0;entryDy=0;" edge="1" parent="WIyWlLk6GJQsqaUBKTNV-1" source="NA5cMDwMh_C78hmzZWPd-15" target="Tm4pH8bPhfzeuyTJ1Fgy-0">
          <mxGeometry relative="1" as="geometry" />
        </mxCell>
        <mxCell id="NA5cMDwMh_C78hmzZWPd-15" value="Ball speed temporarily increases" style="rounded=1;whiteSpace=wrap;html=1;fillColor=#dae8fc;strokeColor=#6c8ebf;" vertex="1" parent="WIyWlLk6GJQsqaUBKTNV-1">
          <mxGeometry x="845" y="280" width="120" height="40" as="geometry" />
        </mxCell>
        <mxCell id="NA5cMDwMh_C78hmzZWPd-21" style="edgeStyle=orthogonalEdgeStyle;rounded=0;orthogonalLoop=1;jettySize=auto;html=1;exitX=0.5;exitY=0;exitDx=0;exitDy=0;" edge="1" parent="WIyWlLk6GJQsqaUBKTNV-1" source="NA5cMDwMh_C78hmzZWPd-16">
          <mxGeometry relative="1" as="geometry">
            <mxPoint x="440" y="250" as="targetPoint" />
            <Array as="points">
              <mxPoint x="1055" y="250" />
            </Array>
          </mxGeometry>
        </mxCell>
        <mxCell id="NA5cMDwMh_C78hmzZWPd-16" value="Ball speed temporarily decreases" style="rounded=1;whiteSpace=wrap;html=1;fillColor=#dae8fc;strokeColor=#6c8ebf;" vertex="1" parent="WIyWlLk6GJQsqaUBKTNV-1">
          <mxGeometry x="995" y="380" width="120" height="40" as="geometry" />
        </mxCell>
      </root>
    </mxGraphModel>
  </diagram>
</mxfile>
